<?xml version="1.0" encoding="UTF-8" standalone="no"?>
<svg
   xmlns:dc="http://purl.org/dc/elements/1.1/"
   xmlns:cc="http://creativecommons.org/ns#"
   xmlns:rdf="http://www.w3.org/1999/02/22-rdf-syntax-ns#"
   xmlns:svg="http://www.w3.org/2000/svg"
   xmlns="http://www.w3.org/2000/svg"
   id="svg8"
   version="1.1"
   viewBox="0 0 34.39585 23.812507"
   height="90.000023"
   width="130.00006">
  <g
     transform="translate(-48.947915,-121.05208)"
     id="layer1">
    <g
       id="g578"
       transform="matrix(0.53382333,0,0,0.70788321,50.177702,122.43992)">
      <rect
         id="rect124"
         style="fill:#000066;stroke-width:1.00000003pt"
         height="30"
         width="60"
         y="0"
         x="0" />
      <g
         id="g584">
        <path
           id="path146"
           style="fill:#ffffff;stroke-width:1.00000003pt"
           d="m 0,0 v 3.3541 l 53.292,26.646 H 60 v -3.354 L 6.708,1e-4 H 0 Z M 60,0 V 3.354 L 6.708,30 H 0 V 26.646 L 53.292,0 Z" />
        <path
           id="path136"
           style="fill:#ffffff;stroke-width:1.00000003pt"
           d="M 25,0 V 30 H 35 V 0 Z M 0,10 V 20 H 60 V 10 Z" />
        <path
           id="path141"
           style="fill:#cc0000;stroke-width:1.00000003pt"
           d="m 0,12 v 6 H 60 V 12 Z M 27,0 v 30 h 6 V 0 Z" />
        <path
           id="path150"
           style="fill:#cc0000;stroke-width:1.00000003pt"
           d="M 0,30 20,20 h 4.472 l -20,10 z M 0,0 20,10 H 15.528 L 0,2.2361 Z m 35.528,10 20,-10 H 60 L 40,10 Z M 60,30 40,20 h 4.472 L 60,27.764 Z" />
      </g>
    </g>
  </g>
</svg>
