<?xml version="1.0" encoding="UTF-8" standalone="no"?>
<svg
   xmlns:dc="http://purl.org/dc/elements/1.1/"
   xmlns:cc="http://creativecommons.org/ns#"
   xmlns:rdf="http://www.w3.org/1999/02/22-rdf-syntax-ns#"
   xmlns:svg="http://www.w3.org/2000/svg"
   xmlns="http://www.w3.org/2000/svg"
   id="svg9342"
   version="1.1"
   fill="currentColor"
   viewBox="0 0 40 40"
   height="50"
   width="50">
  <path
     style="stroke-width:1.55259442"
     id="path9340"
     d="M 20.000014,1.6 C 9.840138,1.6 1.6,10.046876 1.6,20.465159 c 0,8.335255 5.271604,15.406544 12.584076,17.901459 0.918466,0.174485 1.215934,-0.410311 1.215934,-0.907101 V 33.947452 C 10.281739,35.088795 9.216074,31.721365 9.216074,31.721365 8.378872,29.540866 7.172136,28.960769 7.172136,28.960769 c -1.6697993,-1.171218 0.127269,-1.14606 0.127269,-1.14606 1.847667,0.132026 2.819802,1.94468 2.819802,1.94468 1.640667,2.883226 4.304069,2.050013 5.354403,1.56738 0.164064,-1.218371 0.640935,-2.051584 1.1684,-2.521639 -4.086334,-0.479469 -8.382739,-2.097177 -8.382739,-9.324105 0,-2.061022 0.719134,-3.743161 1.895203,-5.063725 -0.190122,-0.476354 -0.820335,-2.395875 0.179407,-4.992977 0,0 1.545601,-0.506228 5.061536,1.933677 1.467402,-0.418191 3.040602,-0.627263 4.604604,-0.635125 1.564,0.0079 3.138734,0.216946 4.609202,0.635125 3.512869,-2.439893 5.055403,-1.933677 5.055403,-1.933677 1.001272,2.598678 0.371055,4.518206 0.180909,4.992977 1.180668,1.320564 1.89367,3.004279 1.89367,5.063725 0,7.245793 -4.304069,8.841471 -8.401142,9.30838 0.659334,0.584796 1.261936,1.732449 1.261936,3.493199 v 5.176913 c 0,0.501525 0.294401,1.091038 1.228201,0.90553 C 33.134532,35.866986 38.4,28.797267 38.4,20.465159 38.4,10.046876 30.161394,1.6 19.99999,1.6 Z" />
</svg>
