<?xml version="1.0" encoding="UTF-8" standalone="no"?>
<svg
   xmlns:dc="http://purl.org/dc/elements/1.1/"
   xmlns:cc="http://creativecommons.org/ns#"
   xmlns:rdf="http://www.w3.org/1999/02/22-rdf-syntax-ns#"
   xmlns:svg="http://www.w3.org/2000/svg"
   xmlns="http://www.w3.org/2000/svg"
   id="svg8"
   version="1.1"
   fill="currentColor"
   viewBox="0 0 13.22917 13.229167"
   height="50"
   width="50">
   <g
      transform="translate(-95.470787,-210.16518)"
      id="layer1">
      <path
         id="path4771"
         d="m 98.919057,222.32849 c -1.399232,-0.26017 -2.18074,-0.54312 -2.656268,-0.9617 -0.32736,-0.28815 -0.32736,-0.28815 -0.311622,-0.72235 0.0087,-0.23883 -0.0087,-0.53208 -0.03854,-0.6517 -0.04414,-0.17685 -0.02096,-0.25707 0.124091,-0.42945 0.124884,-0.14841 0.158974,-0.24261 0.113695,-0.31417 -0.03557,-0.0563 -0.06515,-0.22327 -0.06575,-0.37125 -0.0014,-0.36146 0.248303,-0.61704 0.603007,-0.61704 0.211168,0 0.249415,-0.0217 0.217989,-0.12404 -0.274349,-0.89293 -0.329975,-2.02984 -0.140648,-2.87465 0.211088,-0.94192 0.832449,-2.05891 1.491666,-2.6815 0.586072,-0.5535 1.390916,-1.01542 2.221883,-1.27523 0.4462,-0.13949 0.68548,-0.16641 1.48862,-0.16746 0.80724,-9.6e-4 1.04016,0.0247 1.48862,0.16477 1.87126,0.5843 3.20486,1.98417 3.68499,3.86816 0.22068,0.86592 0.18044,1.93116 -0.11071,2.93046 -0.0427,0.1467 -0.0236,0.15949 0.23905,0.15949 0.47523,0 0.79773,0.51781 0.57809,0.9282 -0.0584,0.1091 -0.043,0.17898 0.0709,0.32389 0.15787,0.2007 0.1971,0.65263 0.0678,0.78185 -0.056,0.056 -0.056,0.11751 0,0.22218 0.0426,0.0796 0.0774,0.23031 0.0774,0.33494 0,0.8888 -3.29058,1.866 -4.47645,1.32939 -0.18125,-0.0821 -0.40007,-0.21965 -0.48623,-0.30582 -0.14662,-0.14662 -0.2179,-0.15639 -1.10819,-0.15222 -0.95149,0.004 -0.95149,0.004 -1.21504,0.22188 -0.14494,0.11958 -0.37519,0.24874 -0.51165,0.28703 -0.300767,0.0845 -1.102575,0.14177 -1.346843,0.0963 z m 1.318413,-0.5875 c 0.45882,-0.20836 0.77771,-0.74708 0.69698,-1.17741 -0.0245,-0.13055 -0.22695,-0.45941 -0.46376,-0.75329 -0.23114,-0.28688 -0.537877,-0.7564 -0.681617,-1.04338 -0.14375,-0.28697 -0.30758,-0.53951 -0.364066,-0.56119 -0.108956,-0.0418 -0.364172,0.22021 -0.364172,0.37389 0,0.0497 0.127591,0.28147 0.283549,0.51501 0.324149,0.48543 0.337949,0.54984 0.140469,0.65553 -0.184237,0.0986 -0.352918,-0.0784 -0.945238,-0.99147 -0.447611,-0.69006 -0.724286,-0.91109 -0.909103,-0.72627 -0.12563,0.12563 0.113689,0.51789 0.629209,1.03132 0.302352,0.30113 0.446067,0.50164 0.460766,0.64285 0.01171,0.11287 -0.01206,0.21706 -0.05292,0.23151 -0.04088,0.0145 -0.35333,-0.19762 -0.694406,-0.47128 -0.838039,-0.67238 -1.307667,-0.90579 -1.428639,-0.71005 -0.104742,0.16948 0.175299,0.46237 0.81502,0.85246 0.71953,0.43872 1.006572,0.72154 0.870473,0.85764 -0.05811,0.0581 -0.248563,-0.0188 -0.719563,-0.29065 -0.848824,-0.4899 -1.369454,-0.52068 -1.006724,-0.0596 0.07972,0.10134 0.33337,0.2479 0.586726,0.339 0.461242,0.16587 0.765296,0.38305 0.765296,0.54668 0,0.14722 -0.157236,0.11331 -0.725196,-0.15642 -0.306639,-0.14561 -0.576663,-0.23143 -0.645339,-0.20507 -0.45634,0.17511 0.526227,0.78484 1.689526,1.04841 0.755181,0.17113 0.746485,0.16991 1.275964,0.17703 0.344348,0.004 0.585125,-0.0338 0.786755,-0.1253 z m 5.3095,0.0292 c 0.70712,-0.14753 1.64009,-0.52192 1.8957,-0.76071 0.19915,-0.18603 0.20852,-0.2139 0.10628,-0.31614 -0.10223,-0.10223 -0.16223,-0.0886 -0.68067,0.15469 -0.52336,0.2456 -0.78966,0.28426 -0.78966,0.11465 0,-0.0904 0.37232,-0.30611 0.8609,-0.49869 0.44795,-0.17656 0.73859,-0.43708 0.67436,-0.60447 -0.0727,-0.18932 -0.32669,-0.12282 -1.08538,0.28413 -0.60669,0.32543 -0.7421,0.37466 -0.77742,0.28265 -0.0699,-0.18225 -0.0294,-0.21685 1.15308,-0.98621 0.27861,-0.18126 0.52699,-0.38283 0.55198,-0.44793 0.0653,-0.16994 -0.1254,-0.33305 -0.32935,-0.28185 -0.16459,0.0413 -0.84255,0.5077 -1.46183,1.00567 -0.29645,0.23837 -0.43698,0.26377 -0.43698,0.079 0,-0.0484 0.25453,-0.36527 0.56562,-0.70416 0.58826,-0.64085 0.73048,-0.91435 0.56004,-1.07694 -0.21953,-0.20942 -0.58684,0.1465 -1.22428,1.18631 -0.29642,0.48353 -0.36165,0.54937 -0.5444,0.54937 -0.29141,0 -0.27549,-0.22669 0.0405,-0.57643 0.19361,-0.2143 0.24811,-0.33495 0.24811,-0.54929 0,-0.29244 -0.14099,-0.47646 -0.31414,-0.41002 -0.0568,0.0218 -0.21712,0.27258 -0.35626,0.55731 -0.13915,0.28472 -0.41338,0.70521 -0.60941,0.93442 -0.41916,0.49012 -0.56326,0.74708 -0.56326,1.00448 0,0.41295 0.39262,0.93349 0.81521,1.08081 0.3105,0.10824 1.13125,0.0983 1.70128,-0.0207 z m -3.20166,-0.50756 c 0.26281,-0.0434 0.27035,-0.0526 0.2281,-0.27777 -0.0775,-0.41321 0.085,-0.82805 0.5436,-1.38694 0.23543,-0.28696 0.53444,-0.74179 0.66446,-1.01071 0.32544,-0.6731 0.47869,-0.82245 0.84397,-0.82245 0.22168,0 0.33506,0.0434 0.45957,0.17595 0.1653,0.17595 0.1653,0.17595 0.46302,-0.0985 0.33654,-0.3102 0.62615,-0.40203 0.91799,-0.29107 0.10964,0.0417 0.21066,0.0645 0.22447,0.0507 0.062,-0.062 0.16789,-0.81694 0.16789,-1.19659 0,-1.327 -0.72047,-2.87994 -1.7137,-3.69382 -0.50437,-0.41328 -1.11861,-0.75176 -1.72431,-0.95017 -0.47896,-0.15689 -0.69931,-0.18646 -1.41775,-0.19025 -0.73438,-0.004 -0.93297,0.0216 -1.45317,0.18613 -1.540701,0.48737 -2.695534,1.63285 -3.233765,3.2076 -0.170572,0.49904 -0.193089,0.6678 -0.187667,1.4064 0.0056,0.77079 0.01931,0.85331 0.167265,1.01079 0.104227,0.11095 0.207137,0.15688 0.291495,0.13011 0.237978,-0.0756 0.568964,0.0523 0.881614,0.34049 0.16989,0.1566 0.308895,0.24829 0.308895,0.20376 0,-0.15478 0.446478,-0.3668 0.673424,-0.31979 0.308802,0.064 0.446352,0.21462 0.717369,0.78572 0.13294,0.28015 0.42092,0.72673 0.63996,0.99241 0.505,0.61258 0.61564,0.87102 0.57625,1.34601 -0.0275,0.3315 -0.0151,0.374 0.11658,0.40004 0.24565,0.0486 0.55801,0.0493 0.84444,0.002 z m -1.76789,-3.41318 c -0.25925,-0.33183 -0.39304,-0.65562 -0.43371,-1.04963 -0.036,-0.34935 -0.0271,-0.3819 0.10431,-0.3819 0.079,0 0.36264,0.10366 0.63018,0.23038 0.4337,0.2054 0.55178,0.22995 1.08898,0.22645 0.52973,-0.004 0.65822,-0.0313 1.06331,-0.23033 0.25342,-0.12452 0.52104,-0.22642 0.59474,-0.22645 0.11966,-5e-5 0.12976,0.0406 0.0946,0.38185 -0.0414,0.40125 -0.18426,0.74344 -0.40066,0.95985 -0.071,0.071 -0.14722,0.173 -0.16933,0.22662 -0.0308,0.0746 -0.0606,0.0649 -0.12728,-0.0419 -0.16051,-0.25686 -0.40958,-0.46318 -0.55912,-0.46318 -0.0815,0 -0.22288,0.0746 -0.31412,0.1659 -0.16215,0.16214 -0.1697,0.16299 -0.33349,0.037 -0.24928,-0.19171 -0.45483,-0.16035 -0.76079,0.11606 -0.15104,0.13646 -0.2867,0.24635 -0.30148,0.24418 -0.0148,-0.002 -0.094,-0.0899 -0.17609,-0.19494 z M 99.645533,215.266 c -0.218617,-0.23421 -0.261637,-0.49576 -0.125,-0.75998 0.1347,-0.26048 0.480607,-0.43123 0.763887,-0.37707 0.39587,0.0757 0.66102,0.59955 0.47726,0.94293 -0.0618,0.11542 -0.10138,0.1228 -0.29553,0.0551 -0.20381,-0.071 -0.23788,-0.061 -0.37439,0.11017 -0.183167,0.22972 -0.254427,0.23432 -0.446227,0.0289 z m 4.071077,-0.0222 c -0.11052,-0.15178 -0.16511,-0.17049 -0.37992,-0.1302 -0.17758,0.0333 -0.26896,0.0184 -0.31287,-0.051 -0.1957,-0.30897 0.10683,-0.87015 0.5002,-0.92788 0.67223,-0.0987 1.07999,0.64166 0.62305,1.1312 -0.18891,0.20238 -0.26996,0.1982 -0.43046,-0.0222 z"
         style="stroke-width:0.07088681" />
   </g>
</svg>