<?xml version="1.0" encoding="UTF-8" standalone="no"?>
<svg
   xmlns:dc="http://purl.org/dc/elements/1.1/"
   xmlns:cc="http://creativecommons.org/ns#"
   xmlns:rdf="http://www.w3.org/1999/02/22-rdf-syntax-ns#"
   xmlns:svg="http://www.w3.org/2000/svg"
   xmlns="http://www.w3.org/2000/svg"
   id="svg17484"
   version="1.1"
   fill="currentColor"
   viewBox="0 0 32 31.999998"
   height="31.999998"
   width="32">
  <path
     style="stroke-width:1.33333325"
     id="path17482"
     d="M 25.333333,0 H 6.6666664 C 2.9853333,0 0,2.985333 0,6.666666 v 18.666666 c 0,3.681335 2.9853333,6.666667 6.6666664,6.666667 H 25.333333 C 29.015999,31.999999 32,29.014667 32,25.333332 V 6.666666 C 32,2.985333 29.015999,0 25.333333,0 Z M 10.666666,25.333332 H 6.6666664 V 10.666665 h 3.9999996 z m -2,-16.357332 c -1.2879996,0 -2.3333331,-1.053334 -2.3333331,-2.352 0,-1.298667 1.0453335,-2.352 2.3333331,-2.352 C 9.954666,4.272 11,5.325333 11,6.624 11,7.922666 9.956,8.976 8.666666,8.976 Z m 18,16.357332 h -4 v -7.472 c 0,-4.490666 -5.333333,-4.150666 -5.333333,0 v 7.472 h -4 V 10.666665 h 4 V 13.02 c 1.861333,-3.448 9.333333,-3.702667 9.333333,3.301333 z" />
</svg>
