<?xml version="1.0" encoding="UTF-8" standalone="no"?>
<svg
   xmlns:dc="http://purl.org/dc/elements/1.1/"
   xmlns:cc="http://creativecommons.org/ns#"
   xmlns:rdf="http://www.w3.org/1999/02/22-rdf-syntax-ns#"
   xmlns:svg="http://www.w3.org/2000/svg"
   xmlns="http://www.w3.org/2000/svg"
   id="svg8"
   version="1.1"
   viewBox="0 0 64.555435 64.555435"
   height="64.555435mm"
   width="64.555435mm">
  <g
     transform="translate(-54.588915,-169.59178)"
     id="layer1">
    <path
       transform="matrix(0.26458333,0,0,0.26458333,54.588915,169.59178)"
       id="path4794"
       d="M 121.99414 1.890625 A 120.10475 120.10475 0 0 0 1.890625 121.99414 A 120.10475 120.10475 0 0 0 121.99414 242.09961 A 120.10475 120.10475 0 0 0 242.09961 121.99414 A 120.10475 120.10475 0 0 0 121.99414 1.890625 z M 138.48242 62.568359 C 144.28847 62.491163 149.31347 63.329127 149.78516 65.132812 C 151.0961 70.145902 147.86137 90.609388 143.1543 107.08008 C 141.89081 111.5011 140.53631 116.97703 140.14453 119.25 C 139.75276 121.52297 138.28587 128.20089 136.88477 134.08984 C 135.48369 139.97884 133.11118 152.86618 131.61133 162.72852 C 128.88434 180.66007 128.88366 180.66029 123.375 181.49609 C 115.53585 182.68555 102.4082 182.69942 102.4082 181.51953 L 102.4082 181.51758 C 102.4082 179.09467 107.57467 152.82877 112.0625 132.43164 C 121.05516 91.560132 122.9812 78.086149 120.55859 73.005859 C 117.92015 67.473009 117.80472 67.921164 122.49805 65.494141 C 126.0905 63.636408 132.67637 62.645556 138.48242 62.568359 z M 196.90625 63.666016 C 216.63586 63.043552 199.62261 103.90599 170.82422 120.9668 C 166.89521 123.29449 166.89566 123.29433 171.59766 133.42773 C 174.18371 139.0011 178.65531 150.09856 181.53516 158.08984 C 189.50112 180.19471 195.04757 188.41853 203.4043 190.50781 C 203.51882 190.53427 203.98769 192.05153 204.44531 193.875 C 206.17135 200.75185 185.89745 206.27298 176.62695 201.45117 C 169.09581 197.53407 167.38978 193.18103 159.26953 157.16406 C 153.31798 130.76607 153.24936 130.57871 149.51562 130.55664 C 143.53112 130.52262 141.22645 126.58624 142.67383 118.87109 C 143.69231 113.44214 147.46247 112.1256 154.30273 114.8125 C 164.18723 118.69525 177.1959 98.853901 176.98047 80.224609 C 176.86141 69.925737 178.82401 67.915773 192.46289 64.363281 C 194.1122 63.933693 195.59094 63.707513 196.90625 63.666016 z M 75.955078 64.822266 C 79.355415 64.789492 82.297479 65.215175 84.386719 66.226562 C 121.33021 84.110569 82.635065 199.75268 43.814453 187.47852 C 20.381148 180.06943 28.00314 146.1924 56.949219 129.0957 C 69.422763 121.72835 68.866826 122.53523 70.273438 109.73828 C 73.353465 81.716599 67.669353 74.478404 49.714844 83.556641 C 42.514254 87.197422 38.308037 86.23638 38.128906 80.910156 C 37.887383 73.730256 61.220286 64.964283 75.955078 64.822266 z M 65.1875 137.99805 C 61.486859 138.12037 51.216159 146.18536 46.919922 153.26367 C 40.346851 164.09319 44.350508 174.75723 53.003906 169.4668 C 57.716263 166.58581 66.544922 146.91265 66.544922 139.29297 C 66.544922 138.36535 66.041494 137.96982 65.1875 137.99805 z "
       mask="none"
       style="opacity:1;fill:currentColor;fill-opacity:1;fill-rule:nonzero;stroke:none;stroke-width:2.09511256;stroke-linecap:round;stroke-linejoin:bevel;stroke-miterlimit:4;stroke-dasharray:none;stroke-dashoffset:0;stroke-opacity:1" />
    <path
       id="path4762"
       d=""
       style="fill:currentColor;stroke-width:0.35277778" />
  </g>
</svg>
